<?xml version="1.0" encoding="utf-8"?>
<svg viewBox="146.5285 389.2355 165.3753 32.6928" width="165.3753" height="32.6928" xmlns="http://www.w3.org/2000/svg">
  <g transform="matrix(0.9999999999999999, 0, 0, 0.9999999999999999, -50.670188903808594, 229.98652648925776)">
    <path d="M 237.114 177.687 C 237.114 176.367 237.33 175.116 237.762 173.934 C 238.194 172.753 238.829 171.724 239.667 170.848 C 240.505 169.972 241.534 169.28 242.753 168.772 C 243.972 168.264 245.357 168.01 246.906 168.01 C 248.354 168.01 249.662 168.239 250.83 168.695 C 251.999 169.153 252.996 169.8 253.821 170.638 C 254.646 171.477 255.294 172.499 255.764 173.705 C 256.234 174.912 256.494 176.252 256.545 177.725 C 256.57 178.208 256.583 178.799 256.583 179.497 C 256.583 180.195 256.621 180.964 256.698 181.802 C 256.774 182.64 256.914 183.523 257.117 184.45 C 257.32 185.377 257.637 186.31 258.069 187.25 L 253.497 187.25 C 253.065 186.31 252.748 185.332 252.545 184.316 C 251.884 185.282 251.046 186.044 250.03 186.602 C 249.014 187.162 247.795 187.441 246.372 187.441 C 245.026 187.441 243.782 187.187 242.639 186.679 C 241.496 186.171 240.518 185.479 239.705 184.602 C 238.892 183.726 238.257 182.698 237.8 181.516 C 237.343 180.335 237.114 179.059 237.114 177.687 Z M 246.906 172.277 C 245.966 172.277 245.166 172.417 244.506 172.696 C 243.845 172.976 243.305 173.363 242.886 173.858 C 242.467 174.354 242.163 174.931 241.972 175.591 C 241.781 176.252 241.686 176.963 241.686 177.725 C 241.686 178.487 241.781 179.199 241.972 179.859 C 242.163 180.519 242.467 181.097 242.886 181.592 C 243.305 182.088 243.845 182.475 244.506 182.754 C 245.166 183.034 245.966 183.173 246.906 183.173 C 248.481 183.173 249.719 182.735 250.621 181.859 C 251.522 180.983 251.973 179.605 251.973 177.725 C 251.897 176.049 251.465 174.722 250.678 173.744 C 249.891 172.766 248.633 172.277 246.906 172.277 Z M 270.031 183.173 C 270.412 183.173 270.73 183.154 270.984 183.116 C 271.238 183.078 271.492 183.034 271.746 182.983 L 271.746 187.25 C 271.415 187.301 271.142 187.345 270.926 187.383 C 270.711 187.422 270.362 187.441 269.879 187.441 C 268.406 187.441 267.085 187.187 265.916 186.679 C 264.748 186.171 263.751 185.479 262.925 184.602 C 262.1 183.726 261.465 182.698 261.02 181.516 C 260.576 180.335 260.354 179.071 260.354 177.725 L 260.354 163.628 L 264.926 163.628 L 264.926 168.848 L 270.831 168.848 L 270.831 173.115 L 264.926 173.115 L 264.926 177.725 C 264.926 179.325 265.339 180.633 266.164 181.649 C 266.989 182.665 268.278 183.173 270.031 183.173 Z" style="fill: rgb(51, 51, 51);"/>
    <path d="M 284.016 168.01 C 285.489 168.01 286.752 168.359 287.807 169.057 C 288.861 169.756 289.693 170.69 290.302 171.858 C 290.911 170.69 291.743 169.756 292.798 169.057 C 293.852 168.359 295.116 168.01 296.589 168.01 C 297.96 168.01 299.173 168.245 300.227 168.714 C 301.281 169.184 302.176 169.826 302.913 170.638 C 303.65 171.452 304.209 172.398 304.59 173.477 C 304.971 174.557 305.161 175.719 305.161 176.963 L 305.161 187.25 L 300.589 187.25 L 300.589 176.963 C 300.589 175.592 300.265 174.468 299.618 173.591 C 298.97 172.715 297.96 172.277 296.589 172.277 C 295.217 172.277 294.207 172.715 293.56 173.591 C 292.912 174.468 292.588 175.592 292.588 176.963 L 292.588 187.25 L 288.016 187.25 L 288.016 176.963 C 288.016 175.592 287.692 174.468 287.045 173.591 C 286.397 172.715 285.387 172.277 284.016 172.277 C 282.644 172.277 281.634 172.715 280.987 173.591 C 280.339 174.468 280.015 175.592 280.015 176.963 L 280.015 187.25 L 275.443 187.25 L 275.443 176.963 C 275.443 175.719 275.634 174.557 276.015 173.477 C 276.396 172.398 276.954 171.452 277.691 170.638 C 278.428 169.826 279.323 169.184 280.377 168.714 C 281.431 168.245 282.644 168.01 284.016 168.01 Z M 308.32 177.687 C 308.32 176.367 308.536 175.116 308.968 173.934 C 309.4 172.753 310.035 171.724 310.873 170.848 C 311.711 169.972 312.74 169.28 313.959 168.772 C 315.178 168.264 316.563 168.01 318.112 168.01 C 319.56 168.01 320.868 168.239 322.036 168.695 C 323.205 169.153 324.202 169.8 325.027 170.638 C 325.852 171.477 326.5 172.499 326.97 173.705 C 327.44 174.912 327.7 176.252 327.751 177.725 C 327.776 178.208 327.789 178.799 327.789 179.497 C 327.789 180.195 327.827 180.964 327.904 181.802 C 327.98 182.64 328.12 183.523 328.323 184.45 C 328.526 185.377 328.844 186.31 329.275 187.25 L 324.703 187.25 C 324.272 186.31 323.954 185.332 323.751 184.316 C 323.09 185.282 322.252 186.044 321.236 186.602 C 320.22 187.162 319.001 187.441 317.579 187.441 C 316.232 187.441 314.988 187.187 313.845 186.679 C 312.702 186.171 311.724 185.479 310.911 184.602 C 310.098 183.726 309.463 182.698 309.006 181.516 C 308.549 180.335 308.32 179.059 308.32 177.687 Z M 318.112 172.277 C 317.172 172.277 316.372 172.417 315.712 172.696 C 315.051 172.976 314.511 173.363 314.092 173.858 C 313.673 174.354 313.369 174.931 313.178 175.591 C 312.987 176.252 312.892 176.963 312.892 177.725 C 312.892 178.487 312.987 179.199 313.178 179.859 C 313.369 180.519 313.673 181.097 314.092 181.592 C 314.511 182.088 315.051 182.475 315.712 182.754 C 316.372 183.034 317.172 183.173 318.112 183.173 C 319.687 183.173 320.925 182.735 321.827 181.859 C 322.728 180.983 323.179 179.605 323.179 177.725 C 323.103 176.049 322.671 174.722 321.884 173.744 C 321.097 172.766 319.839 172.277 318.112 172.277 Z M 341.237 183.173 C 341.618 183.173 341.936 183.154 342.19 183.116 C 342.444 183.078 342.698 183.034 342.952 182.983 L 342.952 187.25 C 342.621 187.301 342.348 187.345 342.133 187.383 C 341.917 187.422 341.568 187.441 341.085 187.441 C 339.612 187.441 338.291 187.187 337.122 186.679 C 335.954 186.171 334.957 185.479 334.132 184.602 C 333.306 183.726 332.671 182.698 332.227 181.516 C 331.782 180.335 331.56 179.071 331.56 177.725 L 331.56 163.628 L 336.132 163.628 L 336.132 168.848 L 342.037 168.848 L 342.037 173.115 L 336.132 173.115 L 336.132 177.725 C 336.132 179.325 336.545 180.633 337.37 181.649 C 338.195 182.665 339.484 183.173 341.237 183.173 Z M 354.497 180.583 C 353.658 180.583 352.801 180.482 351.925 180.278 C 351.049 180.075 350.243 179.796 349.506 179.44 C 349.735 180.532 350.287 181.408 351.163 182.068 C 352.039 182.729 353.417 183.059 355.297 183.059 C 355.703 183.059 356.173 183.04 356.707 183.002 C 357.24 182.964 357.786 182.92 358.345 182.869 C 358.904 182.818 359.437 182.748 359.945 182.659 C 360.453 182.571 360.885 182.463 361.24 182.335 L 361.24 186.64 C 360.783 186.768 360.282 186.882 359.736 186.983 C 359.189 187.085 358.637 187.174 358.078 187.25 C 357.519 187.326 356.98 187.383 356.459 187.421 C 355.938 187.46 355.449 187.479 354.992 187.479 C 353.29 187.479 351.798 187.225 350.515 186.717 C 349.232 186.209 348.166 185.517 347.315 184.64 C 346.464 183.764 345.829 182.736 345.41 181.554 C 344.991 180.373 344.781 179.122 344.781 177.801 C 344.781 176.43 344.997 175.154 345.429 173.972 C 345.861 172.792 346.49 171.757 347.315 170.867 C 348.14 169.979 349.156 169.28 350.363 168.772 C 351.57 168.264 352.948 168.01 354.497 168.01 C 355.665 168.01 356.744 168.163 357.735 168.467 C 358.726 168.772 359.583 169.204 360.307 169.762 C 361.031 170.321 361.59 170.981 361.983 171.743 C 362.377 172.505 362.574 173.356 362.574 174.296 C 362.574 175.236 362.377 176.094 361.983 176.868 C 361.59 177.643 361.037 178.303 360.326 178.849 C 359.615 179.395 358.764 179.821 357.773 180.125 C 356.782 180.431 355.69 180.583 354.497 180.583 Z M 354.535 176.163 C 355.602 176.163 356.44 176.005 357.049 175.687 C 357.659 175.369 357.964 174.906 357.964 174.296 C 357.964 173.687 357.666 173.223 357.069 172.905 C 356.472 172.588 355.665 172.429 354.649 172.429 C 353.303 172.429 352.243 172.69 351.468 173.21 C 350.693 173.731 350.128 174.423 349.772 175.287 C 350.458 175.567 351.226 175.782 352.077 175.934 C 352.928 176.087 353.748 176.163 354.535 176.163 Z" style="fill: rgb(30, 136, 229);"/>
    <g style="" transform="matrix(0.651288, 0, 0, 0.651288, 79.723114, 60.291363)">
      <path d="M 214.063 159.732 C 213.653 159.527 213.219 159.322 212.769 159.159 C 211.949 158.835 211.179 158.561 210.352 158.339 L 210.196 154.292 C 210.185 153.645 209.919 153.028 209.455 152.576 C 208.982 152.124 208.338 151.896 207.685 151.949 L 202.61 152.183 C 201.971 152.215 201.369 152.491 200.927 152.953 C 200.469 153.416 200.228 154.052 200.263 154.702 L 200.419 158.389 C 199.585 158.616 198.771 158.912 197.986 159.273 C 197.213 159.609 196.462 159.994 195.737 160.424 L 192.685 157.684 C 192.235 157.233 191.614 156.993 190.977 157.025 C 190.329 157.064 189.722 157.358 189.29 157.844 L 185.882 161.53 C 184.934 162.505 185 164.075 186.025 164.967 L 188.761 167.515 C 188.322 168.246 187.947 169.013 187.639 169.808 C 187.315 170.628 187.041 171.398 186.82 172.229 L 182.777 172.381 C 179.32 172.553 180.577 177.612 180.684 179.955 C 180.715 180.589 180.984 181.189 181.438 181.634 C 181.902 182.093 182.539 182.334 183.191 182.298 L 186.877 182.146 C 187.103 182.977 187.394 183.789 187.746 184.575 C 188.077 185.349 188.491 186.123 188.892 186.869 L 186.148 189.879 C 185.697 190.33 185.458 190.951 185.493 191.588 C 185.525 192.233 185.811 192.839 186.287 193.275 L 190.027 196.716 C 190.501 197.158 191.138 197.384 191.784 197.338 C 192.431 197.311 193.044 197.044 193.505 196.589 L 196.061 193.812 C 196.791 194.252 197.559 194.627 198.354 194.934 C 199.174 195.258 199.94 195.532 200.771 195.753 L 200.923 199.796 C 200.941 200.444 201.21 201.059 201.672 201.512 C 202.144 201.959 202.783 202.184 203.43 202.131 L 208.505 201.902 C 209.14 201.871 209.739 201.602 210.184 201.148 C 210.643 200.683 210.884 200.047 210.848 199.395 L 210.692 195.708 C 211.532 195.478 212.351 195.18 213.141 194.815 C 213.927 194.476 214.693 194.093 215.435 193.668 L 218.446 196.425 C 218.91 196.884 219.547 197.125 220.199 197.089 C 220.846 197.064 221.455 196.777 221.887 196.294 L 225.327 192.554 C 225.77 192.08 225.995 191.444 225.95 190.797 C 225.921 190.147 225.649 189.531 225.188 189.073 L 222.403 186.558 C 222.843 185.827 223.218 185.06 223.525 184.264 C 223.849 183.444 224.123 182.678 224.365 181.847 L 228.408 181.695 C 229.048 181.67 229.653 181.394 230.091 180.925 C 230.538 180.454 230.765 179.816 230.714 179.168 L 230.48 174.093 C 230.452 173.458 230.182 172.857 229.727 172.414 C 229.263 171.956 228.628 171.715 227.978 171.75 L 224.291 171.906 C 224.037 171.079 223.733 170.268 223.382 169.477 L 222.849 168.428 L 221.936 169.62 C 221.092 170.734 220.297 171.828 219.531 172.897 C 219.685 173.436 219.807 173.983 219.896 174.535 C 220.233 176.474 220.19 178.459 219.769 180.381 C 219.339 182.214 218.578 183.953 217.524 185.513 C 216.411 187.056 215.023 188.379 213.428 189.417 C 211.793 190.476 209.951 191.174 208.025 191.465 C 206.087 191.801 204.102 191.758 202.18 191.338 C 200.342 190.912 198.597 190.154 197.031 189.101 C 195.489 187.988 194.165 186.6 193.128 185.005 C 192.061 183.372 191.355 181.53 191.059 179.602 C 190.723 177.664 190.766 175.679 191.186 173.757 C 191.616 171.917 192.382 170.172 193.443 168.608 C 194.556 167.066 195.945 165.742 197.539 164.705 C 199.177 163.65 201.015 162.945 202.938 162.636 C 204.878 162.299 206.864 162.342 208.787 162.763 C 209.417 162.912 210.037 163.099 210.643 163.324 C 211.659 162.214 212.879 160.912 214.063 159.712 L 214.063 159.732 Z" style="fill: rgb(30, 136, 229);"/>
      <path class="cls-1" d="M 196.028 172.373 L 200.943 172.307 L 201.312 172.405 C 203.041 173.391 204.603 174.643 205.94 176.117 C 207.641 173.374 209.527 170.75 211.585 168.264 C 212.957 166.626 219.4 159.564 220.977 158.954 L 224.877 159.855 L 223.791 161.059 C 220.457 164.766 216.93 169.612 214.198 173.561 C 211.483 177.476 209.02 181.561 206.825 185.792 L 206.178 187.098 L 205.555 185.767 C 204.45 183.358 203.051 181.095 201.39 179.029 C 199.735 176.984 197.792 175.19 195.622 173.704 L 196.032 172.385 L 196.028 172.373 Z" style="fill: rgb(51, 51, 51);"/>
    </g>
  </g>
</svg>